<svg id="svg" version="1.1" xmlns="http://www.w3.org/2000/svg" xmlns:xlink="http://www.w3.org/1999/xlink" width="400" height="400" viewBox="0, 0, 400,400"><g id="svgg"><path id="path0" d="M196.474 33.226 C 172.470 36.762,169.453 71.389,192.527 78.528 L 194.727 79.209 194.727 87.665 L 194.727 96.121 174.023 96.107 C 146.420 96.090,140.473 96.593,131.652 99.690 C 114.109 105.851,99.423 121.181,93.475 139.539 L 91.992 144.117 89.633 144.129 C 80.298 144.176,71.719 151.372,69.714 160.837 C 68.929 164.537,68.939 179.641,69.728 183.398 C 71.856 193.532,80.449 200.780,90.512 200.929 L 93.718 200.977 94.378 202.734 C 100.399 218.779,114.158 231.769,131.462 237.746 L 135.654 239.194 134.198 240.007 C 127.664 243.657,120.861 249.334,117.188 254.203 L 115.430 256.534 110.352 256.742 C 99.086 257.204,90.902 262.267,86.202 271.680 C 83.511 277.070,83.486 277.279,83.307 295.953 L 83.145 312.804 80.999 313.626 C 71.838 317.131,67.969 323.900,67.969 336.420 C 67.969 344.148,68.940 346.094,72.796 346.094 C 76.835 346.094,77.479 344.826,77.754 336.328 C 78.094 325.809,80.824 322.045,88.086 322.086 C 95.098 322.125,98.024 326.173,98.038 335.852 C 98.050 344.091,98.810 345.671,102.927 346.012 C 106.519 346.310,107.636 344.826,108.022 339.242 C 108.906 326.443,105.354 318.718,96.582 314.363 L 93.359 312.763 93.359 306.118 L 93.359 299.473 94.289 300.347 C 95.705 301.676,98.520 302.344,102.713 302.344 L 106.473 302.344 106.968 306.036 C 110.233 330.361,132.098 352.406,162.695 362.222 C 174.869 366.128,181.604 366.984,200.195 366.988 C 218.586 366.993,224.552 366.297,235.738 362.843 C 267.638 352.992,292.969 326.801,292.969 303.668 L 292.969 302.344 296.813 302.344 C 300.964 302.344,303.535 301.768,305.440 300.411 L 306.641 299.556 306.641 306.236 C 306.641 312.253,306.573 312.937,305.957 313.134 C 296.109 316.288,291.797 323.369,291.797 336.385 C 291.797 344.321,292.688 346.094,296.680 346.094 C 300.605 346.094,301.563 344.277,301.563 336.827 C 301.563 327.736,303.378 324.046,308.617 322.490 C 317.055 319.985,321.875 325.119,321.875 336.612 C 321.875 344.441,322.729 346.094,326.776 346.094 C 330.751 346.094,331.641 344.223,331.641 335.863 C 331.641 323.632,327.388 316.476,318.335 313.468 L 316.406 312.828 316.400 296.355 C 316.394 277.740,316.316 277.057,313.574 271.484 C 309.144 262.479,300.494 257.197,289.446 256.751 L 284.166 256.538 282.806 254.549 C 279.723 250.043,273.657 244.654,267.636 241.073 L 264.429 239.166 268.584 237.730 C 285.319 231.950,299.963 217.899,305.464 202.344 L 305.947 200.977 309.214 200.910 C 319.049 200.708,327.382 194.108,329.872 184.550 C 330.729 181.257,330.729 163.285,329.870 159.945 C 327.553 150.926,319.123 144.169,310.156 144.142 L 307.617 144.135 306.321 140.062 C 304.811 135.321,301.286 128.013,298.489 123.828 L 296.532 120.898 303.633 113.770 L 310.734 106.641 325.793 106.641 C 342.728 106.641,343.197 106.584,348.828 103.848 C 355.540 100.586,361.002 93.560,362.660 86.056 C 363.577 81.906,363.569 56.493,362.650 52.759 C 360.377 43.524,352.261 35.672,343.019 33.767 C 338.310 32.796,277.659 33.116,274.609 34.128 C 265.610 37.114,258.655 44.624,256.836 53.320 C 256.014 57.248,256.014 82.205,256.836 86.133 C 257.525 89.425,259.947 94.481,261.960 96.827 C 263.092 98.147,263.246 98.479,262.632 98.284 C 257.316 96.597,248.595 96.087,225.391 96.105 L 205.273 96.121 205.273 87.655 L 205.273 79.188 206.836 78.719 C 214.608 76.390,221.166 69.128,222.895 60.938 C 226.190 45.334,212.407 30.879,196.474 33.226 M341.141 43.162 C 346.816 44.640,351.008 48.541,352.868 54.073 C 353.732 56.643,353.827 81.417,352.985 84.570 C 351.760 89.154,348.225 93.442,343.945 95.534 L 341.602 96.680 324.124 96.875 L 306.646 97.070 298.144 105.566 C 292.127 111.579,289.386 114.062,288.766 114.063 L 287.891 114.063 287.891 106.662 C 287.891 97.151,287.978 97.299,282.072 96.842 C 273.212 96.155,267.084 90.649,266.026 82.422 C 265.532 78.582,265.532 60.320,266.026 56.904 C 266.973 50.355,271.798 44.857,278.125 43.115 C 280.966 42.333,338.121 42.376,341.141 43.162 M205.179 44.077 C 211.126 46.700,214.644 54.253,212.687 60.200 C 207.926 74.674,186.719 71.476,186.719 56.284 C 186.719 46.709,196.492 40.246,205.179 44.077 M285.632 65.103 C 282.662 66.567,281.425 71.109,283.266 73.792 C 287.041 79.293,294.655 77.071,294.688 70.459 C 294.712 65.915,289.836 63.031,285.632 65.103 M307.207 65.003 C 302.481 67.061,302.391 73.968,307.058 76.381 C 310.952 78.395,316.016 75.185,316.016 70.703 C 316.016 66.241,311.329 63.207,307.207 65.003 M328.006 65.357 C 322.352 68.780,325.105 77.493,331.643 76.865 C 334.140 76.625,336.043 75.188,336.926 72.875 C 339.014 67.408,332.996 62.336,328.006 65.357 M251.802 106.641 C 259.927 107.360,267.984 109.952,274.988 114.098 L 278.416 116.128 278.647 118.333 C 279.217 123.788,283.344 128.109,287.997 128.121 C 291.070 128.129,296.396 139.058,298.348 149.361 C 299.333 154.566,299.322 184.740,298.332 190.092 C 294.612 210.201,279.923 225.302,259.740 229.763 L 255.664 230.664 200.000 230.664 C 138.616 230.664,142.758 230.817,134.619 228.254 C 119.439 223.474,106.888 210.704,102.582 195.659 C 99.869 186.179,99.589 155.557,102.125 145.563 C 107.510 124.333,125.294 108.745,146.484 106.679 C 151.310 106.209,246.530 106.174,251.802 106.641 M147.007 141.957 C 131.223 147.070,126.510 166.522,138.241 178.136 C 152.159 191.914,175.391 182.304,175.391 162.767 C 175.391 148.121,160.862 137.469,147.007 141.957 M240.283 141.608 C 224.141 146.130,218.756 166.220,230.523 178.023 C 244.174 191.716,267.698 182.157,267.761 162.891 C 267.808 148.707,253.766 137.832,240.283 141.608 M244.389 241.829 C 261.453 244.202,277.407 258.443,281.937 275.344 C 283.273 280.327,283.709 298.814,282.649 305.507 C 281.003 315.901,275.728 325.672,267.717 333.167 L 264.338 336.328 199.976 336.328 L 135.613 336.328 131.479 332.381 C 123.146 324.426,118.730 316.364,116.984 305.925 C 115.989 299.971,116.319 280.322,117.485 276.099 C 122.384 258.365,137.757 244.281,154.883 241.836 C 158.472 241.324,240.710 241.317,244.389 241.829 " stroke="none" fill="#052c3d" fill-rule="evenodd"></path><path id="path1" d="M279.688 42.846 C 279.150 42.934,278.447 43.113,278.125 43.242 C 277.803 43.371,277.225 43.538,276.840 43.613 C 275.690 43.838,273.047 45.300,273.047 45.711 C 273.047 45.922,272.798 46.094,272.494 46.094 C 271.611 46.094,268.849 49.508,267.475 52.298 L 266.211 54.864 266.082 68.545 C 265.953 82.121,266.237 86.328,267.281 86.328 C 267.516 86.328,267.599 86.438,267.465 86.572 C 267.141 86.895,268.658 89.844,269.149 89.844 C 269.359 89.844,269.531 90.073,269.531 90.353 C 269.531 90.985,271.937 93.359,272.577 93.359 C 272.836 93.359,273.047 93.535,273.047 93.750 C 273.047 93.965,273.311 94.141,273.633 94.141 C 273.955 94.141,274.219 94.304,274.219 94.503 C 274.219 95.258,278.758 96.550,282.192 96.773 C 285.272 96.973,285.812 97.123,286.880 98.076 L 288.086 99.153 288.208 106.225 C 288.301 111.551,288.445 113.228,288.794 113.019 C 289.049 112.866,289.008 113.048,288.703 113.424 C 288.236 113.999,288.235 114.088,288.692 113.987 C 289.271 113.859,293.563 109.883,301.679 101.954 L 306.678 97.070 323.945 96.875 L 341.211 96.680 343.873 95.419 C 346.588 94.133,351.025 90.164,350.570 89.428 C 350.446 89.227,350.507 89.063,350.705 89.063 C 350.903 89.063,351.569 87.964,352.185 86.621 L 353.306 84.180 353.389 70.508 C 353.473 56.779,353.104 52.344,351.879 52.344 C 351.679 52.344,351.625 52.168,351.758 51.953 C 351.891 51.738,351.784 51.563,351.520 51.563 C 351.257 51.563,351.154 51.451,351.291 51.314 C 351.764 50.840,348.207 46.339,347.637 46.691 C 347.478 46.790,347.250 46.615,347.130 46.303 C 346.806 45.461,342.035 43.358,339.509 42.944 C 337.404 42.599,281.734 42.508,279.688 42.846 M176.263 56.250 C 176.263 57.002,176.343 57.310,176.441 56.934 C 176.539 56.558,176.539 55.942,176.441 55.566 C 176.343 55.190,176.263 55.498,176.263 56.250 M292.606 65.838 C 297.173 70.180,294.366 77.297,288.256 76.870 C 281.977 76.432,279.959 68.844,285.177 65.299 C 287.183 63.937,290.889 64.206,292.606 65.838 M313.118 65.254 C 318.818 68.777,316.038 77.359,309.353 76.876 C 302.722 76.396,301.291 67.485,307.409 64.774 C 308.722 64.191,311.820 64.452,313.118 65.254 M333.906 65.002 C 336.437 66.319,337.860 68.943,337.421 71.484 C 336.159 78.786,326.036 78.770,324.801 71.464 C 324.015 66.812,329.670 62.798,333.906 65.002 M145.117 106.904 C 143.154 107.149,138.146 108.274,137.109 108.702 C 136.572 108.924,135.957 109.129,135.742 109.157 C 134.535 109.314,132.031 110.337,132.031 110.674 C 132.031 110.890,131.922 110.959,131.789 110.825 C 131.508 110.545,126.822 112.819,126.628 113.330 C 126.556 113.518,126.276 113.672,126.005 113.672 C 124.481 113.672,112.500 124.011,112.500 125.327 C 112.500 125.531,112.236 125.799,111.914 125.923 C 111.592 126.046,111.328 126.398,111.328 126.704 C 111.328 127.010,111.064 127.361,110.742 127.485 C 110.420 127.609,110.156 127.979,110.156 128.308 C 110.156 128.637,109.980 128.906,109.766 128.906 C 109.551 128.906,109.375 129.170,109.375 129.492 C 109.375 129.814,109.228 130.078,109.048 130.078 C 108.869 130.078,107.803 131.836,106.679 133.984 C 105.555 136.133,104.742 137.891,104.871 137.891 C 105.000 137.891,104.886 138.286,104.617 138.770 C 104.349 139.253,104.101 139.780,104.067 139.941 C 104.032 140.103,103.960 140.322,103.906 140.430 C 103.853 140.537,103.772 140.757,103.727 140.918 C 103.682 141.079,103.426 141.738,103.157 142.383 C 102.889 143.027,102.629 143.914,102.580 144.352 C 102.530 144.791,102.392 145.319,102.273 145.524 C 102.011 145.976,101.564 148.320,101.234 150.977 C 100.907 153.605,100.918 185.958,101.247 188.688 C 101.807 193.340,104.671 202.734,105.529 202.734 C 105.736 202.734,105.797 202.910,105.664 203.125 C 105.531 203.340,105.619 203.516,105.859 203.516 C 106.100 203.516,106.196 203.677,106.074 203.875 C 105.952 204.072,106.086 204.468,106.372 204.754 C 106.658 205.040,106.879 205.402,106.864 205.559 C 106.807 206.137,110.998 212.114,111.737 212.510 C 112.157 212.734,112.500 213.149,112.500 213.431 C 112.500 214.149,117.096 218.400,121.094 221.381 C 124.623 224.012,132.579 227.938,135.156 228.320 C 135.479 228.368,136.023 228.528,136.366 228.675 C 136.709 228.823,137.412 228.993,137.928 229.053 C 138.445 229.113,139.182 229.302,139.568 229.473 C 139.953 229.644,140.376 229.676,140.508 229.544 C 140.640 229.412,140.965 229.483,141.230 229.703 C 142.729 230.948,251.567 231.218,258.031 229.993 C 264.514 228.765,275.781 224.311,275.781 222.978 C 275.781 222.729,275.896 222.641,276.036 222.781 C 276.855 223.600,289.062 212.582,289.063 211.022 C 289.063 210.807,289.337 210.525,289.673 210.396 C 290.009 210.267,290.174 209.985,290.041 209.768 C 289.907 209.552,289.967 209.375,290.174 209.375 C 290.571 209.375,293.998 203.738,294.211 202.734 C 294.280 202.412,294.477 202.045,294.648 201.918 C 294.820 201.791,294.990 201.308,295.025 200.844 C 295.060 200.380,295.194 200.000,295.324 200.000 C 295.563 200.000,296.924 196.006,297.055 194.922 C 297.094 194.600,297.240 194.072,297.380 193.750 C 298.389 191.431,298.565 188.615,298.724 172.266 C 298.885 155.760,298.578 148.296,297.688 147.070 C 297.532 146.855,297.383 146.270,297.357 145.770 C 297.279 144.261,294.889 137.500,294.434 137.500 C 294.201 137.500,294.120 137.391,294.253 137.257 C 294.481 137.029,292.758 133.236,292.234 132.813 C 292.101 132.705,291.657 131.958,291.247 131.152 C 290.837 130.347,290.374 129.688,290.218 129.688 C 290.062 129.688,289.843 129.336,289.731 128.906 C 289.570 128.290,289.198 128.125,287.975 128.125 C 285.085 128.125,281.245 125.680,279.827 122.939 C 279.041 121.420,278.115 118.300,278.341 117.935 C 278.764 117.252,277.706 115.736,276.311 115.025 C 275.483 114.603,274.717 114.148,274.609 114.015 C 274.183 113.484,268.828 110.990,268.601 111.216 C 268.468 111.349,268.359 111.272,268.359 111.045 C 268.359 110.818,267.876 110.495,267.285 110.328 C 265.913 109.940,266.009 109.974,264.735 109.445 C 263.104 108.769,257.978 107.538,254.808 107.062 C 252.186 106.669,148.206 106.518,145.117 106.904 M326.079 106.917 C 326.565 107.010,327.268 107.007,327.641 106.909 C 328.015 106.811,327.617 106.735,326.758 106.739 C 325.898 106.743,325.593 106.823,326.079 106.917 M307.993 109.473 L 306.055 111.523 308.105 109.585 C 310.011 107.784,310.335 107.422,310.044 107.422 C 309.982 107.422,309.059 108.345,307.993 109.473 M159.375 141.586 C 160.557 141.939,161.699 142.267,161.914 142.315 C 163.229 142.606,167.369 145.646,169.547 147.919 C 175.146 153.765,177.055 162.149,174.468 169.531 C 173.903 171.143,173.396 172.637,173.342 172.852 C 173.287 173.066,173.143 173.330,173.021 173.438 C 172.899 173.545,172.256 174.424,171.591 175.391 C 164.785 185.290,148.553 187.890,140.430 180.383 C 139.785 179.788,139.082 179.290,138.867 179.277 C 138.365 179.247,135.588 175.711,134.282 173.438 C 131.993 169.455,130.850 161.871,131.989 158.229 C 132.220 157.491,132.343 156.823,132.264 156.743 C 132.184 156.663,132.627 155.550,133.247 154.269 C 133.867 152.989,134.375 151.858,134.375 151.756 C 134.375 149.240,144.850 141.750,149.164 141.181 C 149.671 141.114,150.150 140.996,150.227 140.919 C 150.621 140.525,157.507 141.027,159.375 141.586 M251.133 141.363 C 252.078 141.636,253.748 142.255,254.844 142.740 C 255.939 143.224,256.968 143.650,257.129 143.685 C 257.290 143.721,257.746 144.058,258.141 144.434 C 258.537 144.810,259.663 145.771,260.642 146.569 C 261.622 147.368,263.208 149.214,264.168 150.671 C 266.763 154.612,267.549 157.020,268.134 162.832 C 268.288 164.362,267.141 169.226,266.039 171.719 C 265.617 172.673,265.262 173.537,265.251 173.640 C 264.998 176.011,256.501 182.452,251.953 183.721 C 247.384 184.995,247.117 185.020,243.750 184.504 C 239.257 183.814,239.552 183.893,236.917 182.677 C 226.743 177.983,221.699 166.759,224.999 156.157 C 225.384 154.919,225.623 153.906,225.530 153.906 C 225.436 153.906,225.543 153.687,225.768 153.418 C 225.992 153.149,226.889 151.836,227.761 150.500 C 230.360 146.516,235.090 142.983,239.453 141.765 C 240.420 141.495,241.338 141.168,241.494 141.038 C 242.006 140.610,249.379 140.858,251.133 141.363 M89.551 144.019 C 89.927 144.118,90.542 144.118,90.918 144.019 C 91.294 143.921,90.986 143.841,90.234 143.841 C 89.482 143.841,89.175 143.921,89.551 144.019 M308.891 144.026 C 309.377 144.120,310.080 144.116,310.454 144.018 C 310.827 143.921,310.430 143.844,309.570 143.849 C 308.711 143.853,308.405 143.933,308.891 144.026 M330.633 172.461 C 330.633 176.758,330.690 178.569,330.760 176.486 C 330.830 174.402,330.830 170.887,330.760 168.673 C 330.691 166.460,330.633 168.164,330.633 172.461 M157.617 241.647 C 143.479 243.350,131.396 250.772,123.657 262.507 C 121.214 266.211,118.719 271.429,118.523 273.242 C 118.500 273.457,118.275 274.135,118.024 274.748 C 116.570 278.291,115.850 298.633,116.957 304.883 C 117.109 305.742,117.234 306.749,117.235 307.121 C 117.236 307.493,117.405 307.901,117.609 308.027 C 117.814 308.154,117.894 308.399,117.787 308.573 C 117.356 309.270,120.858 319.141,121.536 319.141 C 121.748 319.141,121.828 319.292,121.713 319.477 C 121.522 319.786,125.031 325.454,126.315 326.911 C 128.402 329.279,132.907 333.758,134.375 334.924 L 136.133 336.321 200.066 336.324 L 264.000 336.328 266.497 334.196 C 269.987 331.217,276.532 323.438,275.548 323.438 C 275.379 323.438,275.583 323.179,276.000 322.864 C 276.417 322.549,276.582 322.282,276.367 322.272 C 276.145 322.262,276.166 322.130,276.415 321.967 C 276.944 321.620,279.802 316.016,279.449 316.016 C 279.313 316.016,279.399 315.777,279.642 315.485 C 280.258 314.742,281.672 310.523,281.434 310.137 C 281.326 309.963,281.390 309.725,281.577 309.610 C 283.484 308.431,283.590 278.410,281.698 275.195 C 281.571 274.980,281.419 274.453,281.360 274.023 C 281.059 271.846,277.502 264.221,276.163 262.882 C 275.738 262.457,275.488 262.109,275.608 262.109 C 277.578 262.109,265.156 250.293,260.938 248.154 C 260.186 247.773,259.482 247.353,259.375 247.220 C 258.765 246.470,250.781 243.112,250.781 243.606 C 250.781 243.738,250.562 243.665,250.293 243.444 C 250.024 243.223,249.277 242.945,248.633 242.826 C 247.988 242.707,246.758 242.394,245.898 242.131 C 244.442 241.685,161.094 241.228,157.617 241.647 M205.469 253.455 C 206.006 253.799,206.542 254.053,206.661 254.019 C 206.779 253.986,207.099 254.316,207.373 254.754 C 207.720 255.310,207.731 255.464,207.410 255.266 C 207.157 255.110,207.252 255.443,207.622 256.007 C 208.266 256.990,208.935 257.509,208.361 256.580 C 208.188 256.301,208.254 256.235,208.533 256.408 C 208.781 256.561,208.984 256.956,208.984 257.285 C 208.984 257.614,209.380 258.232,209.863 258.659 C 210.347 259.085,210.479 259.318,210.156 259.176 C 209.834 259.033,210.010 259.299,210.547 259.766 C 211.084 260.233,211.260 260.483,210.938 260.322 C 210.615 260.162,210.778 260.498,211.299 261.070 C 211.819 261.642,212.489 262.109,212.786 262.109 C 213.100 262.109,213.209 262.301,213.045 262.566 C 212.853 262.876,212.978 262.941,213.433 262.766 C 213.801 262.625,214.007 262.664,213.890 262.854 C 213.627 263.279,214.581 263.672,215.875 263.672 C 216.483 263.672,216.744 263.511,216.576 263.239 C 216.396 262.948,216.580 262.893,217.139 263.070 C 217.652 263.233,217.969 263.165,217.969 262.891 C 217.969 262.625,218.282 262.547,218.750 262.695 C 219.180 262.832,219.531 262.772,219.531 262.563 C 219.531 262.354,219.910 262.282,220.374 262.403 C 220.965 262.557,221.130 262.484,220.927 262.155 C 220.716 261.814,220.926 261.760,221.705 261.955 C 222.499 262.155,222.696 262.100,222.475 261.742 C 222.067 261.082,225.007 261.321,225.715 262.005 C 226.001 262.281,226.384 262.415,226.567 262.302 C 226.750 262.189,227.026 262.302,227.182 262.554 C 227.369 262.857,227.280 262.915,226.916 262.727 C 226.514 262.518,226.524 262.580,226.953 262.959 C 227.554 263.490,227.905 268.901,227.314 268.537 C 226.497 268.031,226.484 273.114,227.302 273.686 C 227.755 274.004,228.125 274.462,228.125 274.706 C 228.125 274.950,227.849 274.808,227.511 274.391 C 227.074 273.851,227.098 273.997,227.596 274.902 C 227.979 275.601,228.442 276.172,228.623 276.172 C 228.804 276.172,228.844 276.348,228.711 276.563 C 228.578 276.777,228.666 276.953,228.906 276.953 C 229.146 276.953,229.234 277.129,229.102 277.344 C 228.969 277.559,229.057 277.734,229.297 277.734 C 229.537 277.734,229.625 277.910,229.492 278.125 C 229.359 278.340,229.447 278.516,229.688 278.516 C 229.928 278.516,230.016 278.691,229.883 278.906 C 229.750 279.121,229.784 279.297,229.957 279.297 C 230.131 279.297,230.301 279.775,230.335 280.359 C 230.369 280.943,230.570 281.479,230.782 281.550 C 230.994 281.620,231.070 282.049,230.952 282.502 C 230.793 283.110,230.869 283.243,231.245 283.011 C 231.637 282.768,231.693 282.942,231.487 283.764 C 231.305 284.488,231.355 284.747,231.643 284.569 C 231.939 284.386,231.989 284.893,231.810 286.244 C 231.643 287.506,231.705 288.275,231.988 288.450 C 232.528 288.784,232.560 290.494,232.031 290.820 C 231.816 290.953,231.641 291.491,231.641 292.015 C 231.641 292.632,231.418 292.969,231.011 292.969 C 230.503 292.969,230.431 292.705,230.638 291.602 C 230.797 290.756,230.741 290.234,230.491 290.234 C 230.269 290.234,230.113 289.927,230.145 289.551 C 230.262 288.155,230.072 287.458,229.646 287.721 C 229.351 287.903,229.302 287.708,229.492 287.109 C 229.681 286.515,229.632 286.316,229.343 286.495 C 229.075 286.661,229.002 286.533,229.148 286.153 C 229.276 285.819,229.176 285.547,228.925 285.547 C 228.674 285.547,228.578 285.371,228.711 285.156 C 228.844 284.941,228.766 284.766,228.539 284.766 C 228.311 284.766,228.146 284.634,228.171 284.473 C 228.289 283.725,228.092 283.177,227.775 283.373 C 227.583 283.492,227.321 283.317,227.194 282.985 C 227.041 282.587,227.127 282.466,227.446 282.631 C 227.712 282.768,227.490 282.498,226.953 282.031 C 226.416 281.564,226.240 281.301,226.563 281.445 C 226.885 281.590,226.709 281.326,226.172 280.859 C 225.635 280.392,225.459 280.142,225.781 280.303 C 226.104 280.463,225.198 279.424,223.769 277.993 C 222.340 276.562,220.996 275.391,220.783 275.391 C 220.570 275.391,220.291 275.116,220.162 274.780 C 220.033 274.444,219.769 274.267,219.575 274.387 C 219.381 274.507,219.112 274.317,218.977 273.965 C 218.842 273.614,218.621 273.436,218.486 273.571 C 218.352 273.706,217.991 273.511,217.685 273.138 C 217.315 272.686,217.214 272.656,217.383 273.047 C 217.608 273.568,217.579 273.568,217.119 273.047 C 216.834 272.725,216.382 272.443,216.113 272.422 C 214.962 272.330,214.813 272.241,215.080 271.809 C 215.270 271.501,215.150 271.433,214.713 271.601 C 214.355 271.738,214.063 271.686,214.063 271.484 C 214.063 271.283,213.770 271.231,213.412 271.368 C 212.950 271.545,212.852 271.473,213.071 271.118 C 213.302 270.745,213.159 270.689,212.500 270.898 C 211.861 271.101,211.701 271.048,211.914 270.703 C 212.127 270.359,211.967 270.305,211.328 270.508 C 210.677 270.714,210.527 270.660,210.752 270.297 C 210.979 269.930,210.789 269.875,209.986 270.076 C 209.216 270.269,208.998 270.216,209.203 269.883 C 209.413 269.544,209.103 269.495,208.026 269.697 C 207.031 269.884,206.646 269.839,206.821 269.556 C 206.995 269.274,206.034 269.153,203.832 269.180 C 201.435 269.208,200.841 269.309,201.563 269.565 C 202.293 269.824,202.072 269.865,200.684 269.729 C 199.645 269.626,198.828 269.709,198.828 269.917 C 198.828 270.121,198.536 270.176,198.178 270.039 C 197.716 269.861,197.617 269.933,197.836 270.288 C 198.065 270.658,197.930 270.719,197.315 270.523 C 196.833 270.370,196.484 270.430,196.484 270.665 C 196.484 270.887,196.243 270.977,195.949 270.864 C 195.654 270.751,195.305 270.940,195.173 271.285 C 195.041 271.630,194.710 271.883,194.439 271.847 C 193.501 271.724,192.923 271.876,193.120 272.194 C 193.228 272.369,192.773 272.834,192.108 273.227 C 191.252 273.733,190.982 273.782,191.181 273.396 C 191.336 273.097,190.859 273.535,190.120 274.370 C 189.382 275.204,188.095 276.492,187.260 277.230 C 186.425 277.968,186.006 278.443,186.328 278.285 C 186.650 278.127,186.431 278.457,185.840 279.019 C 184.708 280.095,184.432 280.684,185.254 280.268 C 185.522 280.131,185.437 280.270,185.065 280.576 C 184.692 280.882,184.502 281.246,184.641 281.386 C 184.781 281.526,184.696 281.641,184.452 281.641 C 184.199 281.641,184.116 281.920,184.258 282.291 C 184.439 282.763,184.366 282.853,183.990 282.621 C 183.645 282.407,183.566 282.452,183.754 282.755 C 183.908 283.005,183.765 283.478,183.436 283.807 C 183.035 284.209,182.909 284.818,183.053 285.660 C 183.223 286.644,183.175 286.788,182.831 286.328 C 182.492 285.875,182.441 286.095,182.607 287.305 C 182.728 288.188,182.689 288.569,182.517 288.180 C 182.347 287.793,182.209 289.200,182.203 291.392 C 182.197 293.700,182.331 295.097,182.532 294.814 C 182.732 294.532,182.773 294.975,182.632 295.898 C 182.448 297.101,182.494 297.326,182.830 296.875 C 183.174 296.413,183.215 296.524,183.024 297.396 C 182.853 298.176,182.914 298.421,183.229 298.226 C 183.535 298.037,183.598 298.199,183.427 298.738 C 183.277 299.211,183.409 299.759,183.757 300.108 C 184.077 300.427,184.229 300.797,184.096 300.930 C 183.963 301.063,184.070 301.172,184.333 301.172 C 184.596 301.172,184.714 301.329,184.596 301.522 C 184.477 301.714,184.642 301.972,184.963 302.095 C 185.284 302.218,185.547 302.655,185.547 303.065 C 185.547 303.475,185.942 304.104,186.426 304.463 C 186.909 304.821,187.041 304.987,186.719 304.832 C 186.396 304.676,186.836 305.294,187.695 306.205 C 189.484 308.101,191.705 309.826,191.248 308.964 C 191.083 308.653,191.330 308.838,191.797 309.375 C 192.264 309.912,192.530 310.088,192.388 309.766 C 192.217 309.378,192.318 309.409,192.685 309.857 C 192.991 310.230,193.356 310.420,193.496 310.280 C 193.636 310.140,193.750 310.226,193.750 310.470 C 193.750 310.723,194.029 310.806,194.400 310.664 C 194.834 310.497,194.957 310.564,194.770 310.867 C 194.588 311.162,194.701 311.239,195.097 311.087 C 195.430 310.959,195.703 311.043,195.703 311.274 C 195.703 311.505,195.967 311.593,196.289 311.469 C 196.611 311.346,196.875 311.450,196.875 311.700 C 196.875 311.951,197.058 312.042,197.283 311.903 C 197.507 311.765,197.944 311.862,198.254 312.119 C 198.580 312.390,199.245 312.480,199.832 312.333 C 200.491 312.167,200.759 312.221,200.596 312.484 C 200.434 312.745,201.052 312.891,202.321 312.891 C 203.507 312.891,204.297 312.717,204.297 312.458 C 204.297 312.191,204.672 312.119,205.273 312.270 C 205.886 312.423,206.250 312.349,206.250 312.071 C 206.250 311.820,206.589 311.716,207.032 311.832 C 207.524 311.961,207.718 311.883,207.557 311.621 C 207.392 311.354,207.602 311.284,208.143 311.425 C 208.688 311.568,208.894 311.497,208.726 311.225 C 208.561 310.959,208.704 310.896,209.116 311.054 C 209.473 311.191,209.766 311.123,209.766 310.902 C 209.766 310.681,209.925 310.599,210.121 310.720 C 210.446 310.921,215.687 305.936,215.923 305.201 C 215.979 305.026,216.123 304.573,216.244 304.194 C 216.364 303.814,216.655 303.624,216.891 303.769 C 217.167 303.940,217.231 303.802,217.071 303.384 C 216.934 303.027,216.986 302.734,217.188 302.734 C 217.389 302.734,217.441 302.442,217.304 302.084 C 217.127 301.622,217.199 301.523,217.554 301.743 C 217.923 301.971,217.984 301.836,217.789 301.221 C 217.644 300.764,217.676 300.391,217.861 300.391 C 218.245 300.391,218.266 295.871,217.884 295.488 C 217.745 295.349,217.738 294.961,217.867 294.624 C 218.022 294.221,217.946 294.109,217.645 294.295 C 217.393 294.450,217.173 294.435,217.155 294.261 C 216.969 292.458,216.857 292.075,216.436 291.815 C 216.168 291.650,215.920 291.358,215.885 291.167 C 215.849 290.976,215.675 290.869,215.498 290.928 C 215.321 290.987,215.278 290.870,215.403 290.668 C 215.528 290.466,215.014 289.920,214.260 289.455 C 213.507 288.989,212.891 288.524,212.891 288.422 C 212.891 288.319,213.066 288.344,213.281 288.477 C 213.496 288.609,213.672 288.626,213.672 288.513 C 213.672 288.401,213.299 288.109,212.843 287.865 C 212.176 287.508,212.068 287.524,212.287 287.949 C 212.436 288.239,212.308 288.172,212.002 287.799 C 211.696 287.426,211.332 287.236,211.192 287.376 C 211.052 287.516,210.938 287.431,210.938 287.187 C 210.938 286.943,210.674 286.844,210.352 286.968 C 210.029 287.092,209.766 286.990,209.766 286.743 C 209.766 286.437,209.311 286.378,208.342 286.560 C 207.322 286.751,206.996 286.701,207.193 286.382 C 207.372 286.093,207.111 285.938,206.445 285.938 C 205.797 285.938,205.521 286.096,205.690 286.370 C 205.877 286.672,205.575 286.718,204.688 286.523 C 203.708 286.308,203.488 286.359,203.726 286.743 C 203.945 287.098,203.847 287.170,203.384 286.993 C 203.027 286.856,202.734 286.924,202.734 287.145 C 202.734 287.365,202.559 287.437,202.344 287.305 C 202.129 287.172,201.953 287.279,201.953 287.542 C 201.953 287.805,201.850 287.918,201.724 287.792 C 201.598 287.666,201.027 288.041,200.455 288.625 C 199.870 289.221,199.671 289.326,200.000 288.863 C 200.322 288.411,200.009 288.657,199.305 289.411 C 198.600 290.165,198.115 291.020,198.226 291.310 C 198.337 291.600,198.275 291.742,198.087 291.626 C 197.263 291.117,197.245 297.818,198.068 298.577 C 198.440 298.920,198.479 298.896,198.239 298.475 C 198.034 298.115,198.076 298.019,198.360 298.194 C 198.599 298.342,198.708 298.688,198.602 298.963 C 198.496 299.238,198.798 299.804,199.272 300.220 C 199.833 300.712,200.031 300.772,199.838 300.391 C 199.675 300.068,199.884 300.225,200.303 300.740 C 200.726 301.259,201.262 301.553,201.509 301.400 C 201.753 301.249,201.953 301.274,201.953 301.455 C 201.953 301.906,206.770 301.849,207.098 301.395 C 207.478 300.868,208.923 300.838,209.120 301.354 C 209.308 301.842,207.584 303.548,207.245 303.209 C 207.128 303.091,207.031 303.210,207.031 303.474 C 207.031 303.737,206.855 303.844,206.641 303.711 C 206.426 303.578,206.250 303.659,206.250 303.891 C 206.250 304.151,205.855 304.213,205.215 304.052 C 204.572 303.891,204.271 303.938,204.419 304.178 C 204.563 304.411,203.850 304.589,202.622 304.626 C 201.067 304.673,200.725 304.587,201.172 304.263 C 201.640 303.924,201.571 303.880,200.828 304.044 C 200.287 304.164,199.661 304.014,199.331 303.684 C 199.020 303.373,198.604 303.218,198.406 303.340 C 198.208 303.462,198.047 303.357,198.047 303.106 C 198.047 302.855,197.775 302.755,197.441 302.883 C 197.093 303.017,196.936 302.951,197.073 302.730 C 197.204 302.518,197.056 302.344,196.745 302.344 C 196.433 302.344,196.072 302.069,195.943 301.733 C 195.814 301.397,195.527 301.234,195.306 301.371 C 195.084 301.508,194.951 301.436,195.010 301.210 C 195.069 300.985,194.669 300.400,194.122 299.912 C 193.575 299.423,193.383 299.199,193.697 299.414 C 194.189 299.752,194.194 299.689,193.735 298.951 C 193.442 298.482,193.033 298.203,192.824 298.332 C 192.607 298.466,192.550 298.294,192.690 297.928 C 192.825 297.578,192.774 297.191,192.578 297.070 C 192.382 296.949,192.332 296.563,192.466 296.212 C 192.601 295.862,192.549 295.675,192.352 295.797 C 192.145 295.925,191.992 294.788,191.992 293.127 C 191.992 291.536,192.143 290.234,192.327 290.234 C 192.511 290.234,192.556 289.958,192.426 289.619 C 192.296 289.281,192.445 288.749,192.758 288.436 C 193.070 288.124,193.216 287.581,193.081 287.229 C 192.917 286.802,192.987 286.684,193.293 286.873 C 193.544 287.028,193.750 286.969,193.750 286.742 C 193.750 286.007,193.891 285.755,194.706 285.029 C 195.147 284.636,195.288 284.427,195.020 284.564 C 194.179 284.991,194.476 284.586,196.173 282.989 C 197.076 282.140,197.571 281.797,197.273 282.227 C 196.975 282.656,197.281 282.437,197.953 281.738 C 199.207 280.435,199.846 280.092,199.408 280.957 C 199.272 281.226,199.426 281.120,199.750 280.723 C 200.093 280.301,200.538 280.123,200.816 280.295 C 201.135 280.492,201.192 280.426,200.988 280.097 C 200.764 279.734,200.903 279.673,201.514 279.867 C 201.972 280.013,202.344 279.960,202.344 279.750 C 202.344 279.541,202.723 279.469,203.186 279.590 C 203.649 279.711,203.930 279.651,203.811 279.456 C 203.686 279.254,205.154 279.100,207.231 279.097 C 209.346 279.094,210.776 279.243,210.647 279.451 C 210.524 279.650,210.800 279.712,211.267 279.590 C 211.730 279.469,212.109 279.548,212.109 279.766 C 212.109 279.984,212.373 280.061,212.695 279.937 C 213.018 279.813,213.281 279.894,213.281 280.117 C 213.281 280.340,213.622 280.413,214.043 280.280 C 214.534 280.124,215.088 280.322,215.605 280.839 C 216.046 281.280,216.406 281.561,216.406 281.464 C 216.406 281.367,216.865 281.712,217.425 282.231 C 217.985 282.750,218.556 283.142,218.694 283.102 C 219.043 283.001,221.333 285.371,221.628 286.139 C 221.761 286.485,222.011 286.681,222.185 286.573 C 222.358 286.466,222.724 286.737,222.998 287.176 C 223.342 287.727,223.354 287.885,223.037 287.689 C 222.689 287.474,222.685 287.605,223.022 288.234 C 223.265 288.690,223.645 289.063,223.865 289.063 C 224.085 289.063,224.156 289.238,224.023 289.453 C 223.891 289.668,223.963 289.844,224.183 289.844 C 224.404 289.844,224.473 290.136,224.335 290.494 C 224.161 290.947,224.232 291.053,224.569 290.845 C 224.868 290.660,225.025 290.747,224.980 291.074 C 224.823 292.219,225.020 293.002,225.406 292.764 C 225.672 292.599,225.720 292.881,225.545 293.580 C 225.348 294.364,225.402 294.570,225.749 294.356 C 226.104 294.137,226.153 294.429,225.947 295.526 C 225.739 296.635,225.789 296.916,226.154 296.691 C 226.525 296.462,226.573 296.949,226.367 298.828 C 226.157 300.739,226.206 301.197,226.593 300.958 C 226.952 300.736,227.010 300.852,226.805 301.385 C 226.607 301.900,226.789 302.333,227.422 302.850 C 227.916 303.253,228.082 303.459,227.792 303.306 C 227.431 303.117,227.476 303.355,227.934 304.053 C 228.303 304.617,228.771 305.078,228.974 305.078 C 229.177 305.078,229.234 305.254,229.102 305.469 C 228.969 305.684,229.057 305.859,229.297 305.859 C 229.537 305.859,229.625 306.035,229.492 306.250 C 229.359 306.465,229.425 306.641,229.637 306.641 C 229.879 306.641,229.901 307.069,229.696 307.783 C 229.516 308.411,229.452 309.009,229.554 309.111 C 229.656 309.213,229.525 309.429,229.263 309.592 C 228.938 309.792,228.877 309.711,229.070 309.338 C 229.227 309.036,229.068 309.141,228.718 309.570 C 228.368 310.000,227.828 310.300,227.517 310.237 C 227.207 310.174,226.953 310.300,226.953 310.517 C 226.953 310.735,226.661 310.801,226.303 310.664 C 225.841 310.486,225.742 310.558,225.961 310.913 C 226.190 311.283,226.055 311.344,225.440 311.148 C 224.928 310.986,224.609 311.054,224.609 311.325 C 224.609 311.567,224.436 311.657,224.223 311.526 C 223.730 311.221,221.287 312.370,220.623 313.220 C 220.166 313.805,220.192 313.816,220.898 313.330 C 221.328 313.035,221.208 313.236,220.630 313.778 C 220.053 314.320,219.687 314.869,219.817 314.999 C 219.946 315.128,219.818 315.234,219.531 315.234 C 219.245 315.234,219.119 315.343,219.252 315.476 C 219.385 315.609,219.230 315.982,218.906 316.306 C 218.507 316.705,218.395 317.286,218.558 318.115 C 218.737 319.029,218.695 319.189,218.389 318.750 C 218.061 318.279,217.980 318.371,217.975 319.220 C 217.966 320.735,217.194 322.244,216.553 321.998 C 216.257 321.884,216.016 321.986,216.016 322.224 C 216.016 322.462,215.654 322.656,215.211 322.656 C 214.723 322.656,214.512 322.487,214.674 322.224 C 214.854 321.933,214.670 321.877,214.111 322.055 C 213.587 322.221,213.281 322.150,213.281 321.860 C 213.281 321.607,213.018 321.502,212.695 321.626 C 212.373 321.749,212.109 321.703,212.109 321.523 C 212.109 320.435,206.618 320.106,205.521 321.129 C 205.063 321.556,204.685 321.767,204.682 321.597 C 204.678 321.428,204.509 321.553,204.305 321.875 C 204.101 322.197,203.772 322.461,203.574 322.461 C 203.375 322.461,202.886 322.821,202.485 323.261 C 202.085 323.700,201.912 323.788,202.100 323.456 C 202.287 323.124,201.980 323.345,201.416 323.948 C 200.852 324.550,200.385 324.902,200.378 324.729 C 200.370 324.556,200.041 324.802,199.645 325.276 C 199.249 325.751,198.815 326.029,198.681 325.895 C 198.547 325.761,198.438 325.851,198.438 326.095 C 198.438 326.338,198.174 326.437,197.852 326.313 C 197.529 326.189,197.266 326.287,197.266 326.530 C 197.266 326.814,196.941 326.758,196.356 326.375 C 195.855 326.047,195.299 325.911,195.121 326.073 C 194.943 326.235,194.916 326.158,195.063 325.903 C 195.209 325.648,195.046 325.280,194.700 325.087 C 194.354 324.893,194.064 324.574,194.056 324.379 C 194.023 323.578,193.643 323.067,193.258 323.305 C 193.030 323.446,192.963 323.372,193.107 323.139 C 193.250 322.908,193.110 322.462,192.796 322.148 C 192.482 321.834,192.312 321.490,192.418 321.384 C 192.964 320.838,189.331 317.915,188.398 318.149 C 187.779 318.304,187.524 318.246,187.686 317.984 C 187.844 317.729,187.349 317.578,186.351 317.578 C 185.479 317.578,184.766 317.723,184.766 317.901 C 184.766 318.079,184.259 318.150,183.640 318.059 C 183.021 317.968,182.406 318.070,182.273 318.285 C 182.140 318.500,181.284 318.602,180.371 318.511 C 179.153 318.391,178.919 318.442,179.492 318.705 C 180.083 318.976,179.774 319.063,178.223 319.064 C 176.940 319.065,176.263 318.918,176.416 318.671 C 176.566 318.428,176.361 318.371,175.885 318.522 C 175.403 318.675,174.914 318.531,174.589 318.139 C 174.007 317.439,173.804 313.281,174.351 313.281 C 174.543 313.281,174.617 312.847,174.516 312.317 C 174.404 311.733,174.486 311.447,174.722 311.593 C 174.962 311.741,175.037 311.438,174.918 310.812 C 174.797 310.178,174.873 309.882,175.118 310.034 C 175.360 310.184,175.428 309.952,175.293 309.436 C 175.172 308.973,175.238 308.594,175.441 308.594 C 175.846 308.594,175.713 306.833,175.275 306.395 C 175.124 306.244,175.003 305.929,175.006 305.697 C 175.009 305.464,175.182 305.537,175.391 305.859 C 175.599 306.182,175.772 306.265,175.775 306.044 C 175.787 305.237,174.579 303.942,174.016 304.158 C 173.696 304.281,173.339 304.103,173.205 303.754 C 173.073 303.410,172.808 303.227,172.615 303.346 C 172.423 303.464,172.266 303.365,172.266 303.125 C 172.266 302.885,172.090 302.797,171.875 302.930 C 171.660 303.062,171.484 302.975,171.484 302.734 C 171.484 302.494,171.309 302.406,171.094 302.539 C 170.879 302.672,170.703 302.584,170.703 302.344 C 170.703 302.104,170.527 302.016,170.313 302.148 C 170.098 302.281,169.922 302.174,169.922 301.911 C 169.922 301.648,169.819 301.535,169.694 301.660 C 169.569 301.785,169.123 301.545,168.703 301.125 C 168.284 300.705,167.807 300.444,167.644 300.545 C 167.481 300.646,166.565 299.910,165.608 298.911 C 164.650 297.911,164.139 297.264,164.472 297.472 C 165.017 297.815,165.017 297.793,164.472 297.252 C 164.139 296.922,163.846 296.483,163.821 296.275 C 163.795 296.068,163.661 295.296,163.524 294.560 C 163.386 293.823,163.382 293.330,163.516 293.464 C 163.842 293.790,165.855 291.358,165.690 290.839 C 165.618 290.614,165.684 290.554,165.836 290.706 C 165.988 290.858,166.456 290.594,166.875 290.120 C 167.295 289.646,167.519 289.521,167.374 289.844 C 167.228 290.166,167.698 289.805,168.418 289.042 C 169.138 288.279,169.470 288.016,169.156 288.456 C 168.842 288.897,169.227 288.630,170.012 287.863 C 170.796 287.096,171.492 286.231,171.559 285.942 C 171.625 285.653,172.001 285.081,172.393 284.670 C 172.786 284.260,173.011 283.674,172.894 283.368 C 172.777 283.063,172.835 282.813,173.023 282.813 C 173.211 282.813,173.265 282.433,173.144 281.970 C 172.984 281.357,173.058 281.211,173.418 281.433 C 173.786 281.661,173.841 281.514,173.633 280.859 C 173.425 280.205,173.480 280.058,173.848 280.286 C 174.208 280.508,174.282 280.362,174.122 279.749 C 174.000 279.285,174.061 278.906,174.255 278.906 C 174.747 278.906,174.702 277.056,174.203 276.748 C 173.979 276.610,173.903 276.160,174.034 275.748 C 174.165 275.337,174.089 275.000,173.867 275.000 C 173.644 275.000,173.563 274.736,173.687 274.414 C 173.811 274.092,173.705 273.828,173.453 273.828 C 173.172 273.828,173.090 273.525,173.242 273.047 C 173.381 272.609,173.312 272.266,173.085 272.266 C 172.863 272.266,172.793 271.973,172.930 271.616 C 173.077 271.233,173.021 271.064,172.793 271.204 C 172.559 271.349,172.467 270.952,172.559 270.194 C 172.680 269.207,172.621 269.068,172.277 269.531 C 171.944 269.980,171.891 269.706,172.048 268.359 C 172.161 267.393,172.300 265.898,172.357 265.039 C 172.421 264.076,172.734 263.273,173.171 262.947 C 173.953 262.365,177.683 262.100,177.995 262.605 C 178.102 262.780,178.528 262.816,178.939 262.685 C 179.351 262.554,179.688 262.605,179.688 262.799 C 179.688 263.227,182.421 264.109,182.877 263.827 C 183.056 263.716,183.203 263.812,183.203 264.039 C 183.203 264.267,183.829 264.453,184.593 264.453 C 185.510 264.453,185.893 264.306,185.716 264.021 C 185.534 263.726,185.729 263.677,186.328 263.867 C 186.943 264.062,187.124 264.011,186.930 263.698 C 186.734 263.381,186.965 263.328,187.721 263.518 C 188.523 263.719,188.713 263.664,188.486 263.296 C 188.264 262.938,188.406 262.877,189.014 263.070 C 189.470 263.215,189.844 263.190,189.844 263.015 C 189.844 262.839,190.675 262.663,191.690 262.624 C 192.706 262.585,193.600 262.364,193.677 262.133 C 193.754 261.903,194.005 261.830,194.234 261.972 C 194.470 262.118,194.539 262.047,194.393 261.810 C 194.250 261.580,194.542 261.069,195.042 260.676 C 195.542 260.283,195.985 259.785,196.027 259.570 C 196.247 258.441,196.576 257.823,196.862 258.000 C 197.180 258.197,197.834 257.098,197.722 256.555 C 197.690 256.400,198.019 256.083,198.452 255.851 C 198.886 255.619,199.121 255.235,198.974 254.998 C 198.825 254.757,198.884 254.676,199.109 254.815 C 199.330 254.952,200.104 254.471,200.830 253.747 C 202.276 252.303,203.545 252.223,205.469 253.455 M316.584 297.070 C 316.584 305.449,316.636 308.821,316.699 304.564 C 316.762 300.307,316.762 293.451,316.699 289.330 C 316.635 285.208,316.584 288.691,316.584 297.070 M213.458 308.301 L 211.914 309.961 213.574 308.417 C 214.487 307.568,215.234 306.820,215.234 306.757 C 215.234 306.461,214.894 306.757,213.458 308.301 " stroke="none" fill="#87e4f3" fill-rule="evenodd"></path><path id="path2" d="M0.000 200.000 L 0.000 400.000 200.000 400.000 L 400.000 400.000 400.000 200.000 L 400.000 0.000 200.000 0.000 L 0.000 0.000 0.000 200.000 M207.106 34.005 C 228.496 41.172,228.581 72.459,207.227 78.722 L 205.273 79.295 205.386 87.668 L 205.498 96.040 229.409 96.194 C 253.642 96.350,257.480 96.567,261.816 98.034 C 263.211 98.505,263.173 98.304,261.495 96.351 C 256.839 90.933,256.181 87.399,256.327 68.600 L 256.445 53.320 257.492 50.455 C 260.298 42.773,265.820 37.251,273.502 34.445 L 276.367 33.398 308.682 33.290 C 344.546 33.170,343.618 33.113,349.013 35.742 C 355.728 39.014,360.591 44.962,362.746 52.539 C 363.600 55.545,364.000 77.776,363.294 83.078 C 361.622 95.643,352.623 104.920,340.465 106.611 C 338.791 106.844,331.489 107.031,324.092 107.031 L 310.742 107.031 303.631 113.884 L 296.521 120.736 298.885 124.333 C 301.833 128.817,304.776 134.913,306.422 139.942 L 307.682 143.793 310.307 143.945 C 319.605 144.484,327.198 150.527,329.938 159.570 C 330.838 162.543,331.002 180.400,330.161 183.974 C 327.798 194.023,318.775 201.135,308.354 201.165 L 305.966 201.172 305.269 203.027 C 299.364 218.752,285.493 231.895,268.484 237.880 L 264.441 239.303 265.912 239.999 C 271.000 242.407,278.238 248.487,282.244 253.717 L 284.483 256.641 288.824 256.646 C 299.994 256.661,308.984 262.092,313.834 271.756 C 316.428 276.924,316.512 277.643,316.693 296.155 L 316.855 312.817 319.074 313.647 C 323.640 315.355,327.635 319.206,330.040 324.219 L 331.445 327.148 331.579 334.695 C 331.753 344.477,331.046 346.159,326.758 346.159 C 322.730 346.159,321.876 344.520,321.873 336.791 C 321.869 326.589,318.774 322.103,311.741 322.106 C 304.652 322.110,301.564 326.653,301.561 337.083 C 301.559 344.590,300.715 346.159,296.680 346.159 C 292.560 346.159,291.797 344.545,291.797 335.832 C 291.797 323.724,295.710 316.823,304.395 313.615 L 306.641 312.786 306.641 306.137 C 306.641 299.804,306.608 299.518,305.950 300.113 C 304.179 301.716,301.877 302.326,297.566 302.335 C 292.816 302.345,293.249 301.991,292.779 306.250 C 289.506 335.890,254.810 363.267,216.016 366.819 C 201.740 368.126,180.638 366.942,169.531 364.211 C 135.265 355.784,106.641 328.352,106.641 303.943 L 106.641 302.344 102.203 302.344 C 98.104 302.344,97.599 302.259,95.563 301.232 L 93.359 300.121 93.359 306.518 C 93.359 312.266,93.429 312.938,94.043 313.137 C 100.911 315.363,106.518 321.708,107.783 328.685 C 108.325 331.675,108.327 341.418,107.786 342.846 C 106.389 346.534,102.140 347.376,99.392 344.509 L 98.242 343.310 98.047 336.206 C 97.774 326.284,95.822 323.176,89.175 322.082 C 82.184 320.931,78.038 326.064,77.826 336.133 C 77.657 344.174,77.190 345.380,73.963 346.107 C 69.393 347.138,67.969 344.745,67.969 336.039 C 67.969 323.593,72.741 315.697,81.738 313.258 L 83.203 312.861 83.203 297.039 C 83.203 279.618,83.409 277.503,85.572 272.734 C 90.167 262.599,99.573 256.641,110.977 256.641 L 115.189 256.641 116.936 254.395 C 120.860 249.352,126.581 244.406,132.474 240.963 L 135.456 239.221 131.497 237.884 C 115.294 232.413,102.184 220.581,95.337 205.249 L 93.508 201.154 90.173 201.019 C 81.138 200.655,73.508 194.943,70.243 186.102 C 69.068 182.919,68.679 164.543,69.700 160.489 C 72.081 151.040,79.701 144.575,89.156 143.979 L 91.948 143.803 93.192 139.872 C 99.168 120.978,114.602 105.125,132.761 99.228 C 141.341 96.442,142.423 96.353,169.824 96.189 L 194.531 96.042 194.531 87.700 L 194.531 79.357 193.066 78.889 C 179.078 74.417,172.332 58.214,179.107 45.361 C 184.360 35.396,196.527 30.461,207.106 34.005 " stroke="none" fill="#fbfbfb" fill-rule="evenodd"></path><path id="path3" d="M195.624 43.645 C 181.547 48.939,185.036 69.531,200.010 69.531 C 212.045 69.531,217.752 54.918,208.937 46.673 C 205.381 43.347,199.796 42.076,195.624 43.645 M200.714 254.013 C 199.784 254.716,198.284 256.430,197.380 257.822 C 194.654 262.017,194.537 262.122,191.992 262.671 C 190.703 262.949,188.478 263.497,187.047 263.887 L 184.445 264.598 180.992 263.544 C 172.867 261.064,170.732 263.193,173.030 271.484 C 174.735 277.633,174.763 278.030,173.733 281.250 C 172.459 285.232,171.207 287.065,168.021 289.607 C 161.499 294.810,162.506 298.046,172.153 302.880 C 176.126 304.871,176.393 305.624,175.000 310.938 C 173.074 318.284,174.555 319.493,183.606 317.967 C 188.710 317.106,190.128 317.771,193.143 322.446 C 196.155 327.114,197.027 327.349,200.573 324.447 C 205.818 320.156,207.357 319.740,212.228 321.296 C 216.676 322.716,217.583 322.328,218.127 318.772 C 218.755 314.670,220.796 312.378,225.077 310.968 C 230.119 309.308,230.615 308.194,228.068 304.260 C 226.612 302.012,226.412 301.404,226.096 298.273 C 224.169 279.170,201.675 271.777,193.319 287.500 C 188.497 296.574,198.699 308.005,207.291 303.155 C 208.867 302.266,209.351 300.765,207.860 301.394 C 198.215 305.456,192.714 292.320,201.966 287.323 C 211.402 282.227,221.953 293.593,217.067 303.591 C 208.543 321.032,182.008 311.814,182.036 291.422 C 182.061 273.202,201.325 263.351,217.864 273.100 C 224.430 276.970,230.859 286.255,230.859 291.868 C 230.859 293.565,231.522 293.170,231.798 291.309 C 232.380 287.375,230.923 281.186,228.235 276.175 L 226.456 272.858 226.903 269.925 C 228.148 261.742,227.089 260.721,219.454 262.735 C 213.903 264.199,213.128 263.827,208.794 257.610 C 205.039 252.224,203.805 251.675,200.714 254.013 " stroke="none" fill="#fb9c31" fill-rule="evenodd"></path><path id="path4" d="M363.454 69.336 C 363.454 75.781,363.508 78.473,363.573 75.317 C 363.639 72.161,363.639 66.888,363.574 63.598 C 363.508 60.309,363.454 62.891,363.454 69.336 M265.797 69.531 C 265.797 75.654,265.851 78.159,265.917 75.098 C 265.983 72.036,265.983 67.026,265.917 63.965 C 265.851 60.903,265.797 63.408,265.797 69.531 M194.697 87.695 C 194.697 92.207,194.754 93.999,194.823 91.678 C 194.892 89.357,194.892 85.665,194.822 83.475 C 194.753 81.284,194.696 83.184,194.697 87.695 M205.223 85.938 C 205.223 88.193,205.287 89.116,205.366 87.988 C 205.445 86.860,205.445 85.015,205.366 83.887 C 205.287 82.759,205.223 83.682,205.223 85.938 M355.249 99.316 L 354.102 100.586 355.371 99.439 C 356.069 98.808,356.641 98.236,356.641 98.169 C 356.641 97.867,356.318 98.133,355.249 99.316 M288.053 107.031 C 288.053 111.006,288.111 112.632,288.182 110.645 C 288.253 108.657,288.253 105.405,288.182 103.418 C 288.111 101.431,288.053 103.057,288.053 107.031 M174.542 106.543 C 188.362 106.600,210.862 106.600,224.542 106.543 C 238.222 106.486,226.914 106.439,199.414 106.439 C 171.914 106.439,160.722 106.486,174.542 106.543 M292.961 110.449 L 289.258 114.258 293.066 110.555 C 295.161 108.518,296.875 106.804,296.875 106.746 C 296.875 106.463,296.401 106.912,292.961 110.449 M310.407 106.941 C 310.305 107.106,310.910 107.175,311.752 107.095 C 312.593 107.015,313.281 106.880,313.281 106.795 C 313.281 106.504,310.593 106.640,310.407 106.941 M314.160 106.910 C 314.536 107.008,315.151 107.008,315.527 106.910 C 315.903 106.812,315.596 106.731,314.844 106.731 C 314.092 106.731,313.784 106.812,314.160 106.910 M320.219 106.917 C 320.705 107.010,321.408 107.007,321.782 106.909 C 322.155 106.811,321.758 106.735,320.898 106.739 C 320.039 106.743,319.733 106.823,320.219 106.917 M334.863 106.910 C 335.239 107.008,335.854 107.008,336.230 106.910 C 336.606 106.812,336.299 106.731,335.547 106.731 C 334.795 106.731,334.487 106.812,334.863 106.910 M108.963 113.965 L 107.617 115.430 109.082 114.084 C 109.888 113.343,110.547 112.684,110.547 112.619 C 110.547 112.320,110.216 112.601,108.963 113.965 M153.032 140.901 C 153.518 140.995,154.221 140.991,154.594 140.893 C 154.968 140.796,154.570 140.719,153.711 140.724 C 152.852 140.728,152.546 140.808,153.032 140.901 M245.025 140.905 C 245.619 140.995,246.498 140.993,246.978 140.900 C 247.458 140.807,246.973 140.734,245.898 140.737 C 244.824 140.740,244.431 140.816,245.025 140.905 M299.003 168.945 C 299.003 176.035,299.056 178.991,299.120 175.513 C 299.185 172.036,299.185 166.235,299.121 162.622 C 299.056 159.010,299.003 161.855,299.003 168.945 M100.551 165.234 C 100.551 168.994,100.610 170.532,100.681 168.652 C 100.753 166.772,100.753 163.696,100.681 161.816 C 100.610 159.937,100.551 161.475,100.551 165.234 M223.945 162.500 C 223.945 163.682,224.018 164.165,224.108 163.574 C 224.197 162.983,224.197 162.017,224.108 161.426 C 224.018 160.835,223.945 161.318,223.945 162.500 M175.497 162.891 C 175.497 163.857,175.573 164.253,175.666 163.770 C 175.759 163.286,175.759 162.495,175.666 162.012 C 175.573 161.528,175.497 161.924,175.497 162.891 M100.516 174.609 C 100.516 176.006,100.587 176.577,100.673 175.879 C 100.760 175.181,100.760 174.038,100.673 173.340 C 100.587 172.642,100.516 173.213,100.516 174.609 M136.719 177.075 C 136.719 177.143,137.290 177.714,137.988 178.345 L 139.258 179.492 138.111 178.223 C 137.041 177.039,136.719 176.774,136.719 177.075 M147.363 230.738 C 147.739 230.836,148.354 230.836,148.730 230.738 C 149.106 230.640,148.799 230.559,148.047 230.559 C 147.295 230.559,146.987 230.640,147.363 230.738 M250.884 230.749 C 251.478 230.839,252.357 230.836,252.837 230.744 C 253.318 230.651,252.832 230.578,251.758 230.580 C 250.684 230.583,250.291 230.659,250.884 230.749 M194.511 261.155 C 193.995 261.704,193.836 262.052,194.158 261.928 C 194.667 261.733,195.931 260.156,195.579 260.156 C 195.507 260.156,195.027 260.605,194.511 261.155 M222.754 261.597 C 223.130 261.696,223.745 261.696,224.121 261.597 C 224.497 261.499,224.189 261.419,223.438 261.419 C 222.686 261.419,222.378 261.499,222.754 261.597 M200.488 269.801 C 200.864 269.899,201.479 269.899,201.855 269.801 C 202.231 269.702,201.924 269.622,201.172 269.622 C 200.420 269.622,200.112 269.702,200.488 269.801 M191.797 273.082 C 191.148 273.612,191.083 273.745,191.602 273.477 C 192.876 272.818,193.582 272.277,193.164 272.280 C 192.949 272.282,192.334 272.642,191.797 273.082 M188.452 275.879 L 187.305 277.148 188.574 276.001 C 189.758 274.932,190.023 274.609,189.722 274.609 C 189.654 274.609,189.083 275.181,188.452 275.879 M195.880 283.301 L 194.336 284.961 195.996 283.417 C 197.540 281.981,197.836 281.641,197.540 281.641 C 197.476 281.641,196.729 282.388,195.880 283.301 M182.130 290.820 C 182.134 291.680,182.214 291.985,182.308 291.499 C 182.401 291.013,182.397 290.310,182.300 289.937 C 182.202 289.563,182.125 289.961,182.130 290.820 M197.364 295.117 C 197.368 295.977,197.448 296.282,197.542 295.796 C 197.635 295.310,197.632 294.607,197.534 294.234 C 197.436 293.860,197.360 294.258,197.364 295.117 M218.059 298.047 C 218.059 298.799,218.140 299.106,218.238 298.730 C 218.336 298.354,218.336 297.739,218.238 297.363 C 218.140 296.987,218.059 297.295,218.059 298.047 M203.813 301.839 C 204.299 301.932,205.002 301.929,205.376 301.831 C 205.749 301.733,205.352 301.657,204.492 301.661 C 203.633 301.665,203.327 301.745,203.813 301.839 M201.469 304.573 C 201.955 304.667,202.658 304.663,203.032 304.565 C 203.405 304.467,203.008 304.391,202.148 304.395 C 201.289 304.400,200.983 304.480,201.469 304.573 M213.462 307.910 L 211.523 309.961 213.574 308.022 C 215.480 306.221,215.804 305.859,215.513 305.859 C 215.451 305.859,214.528 306.782,213.462 307.910 M207.422 311.523 C 206.670 311.813,206.318 312.055,206.641 312.062 C 206.963 312.069,207.754 311.833,208.398 311.538 C 209.907 310.847,209.205 310.837,207.422 311.523 M173.853 316.417 C 173.821 317.189,174.915 318.750,175.487 318.750 C 175.731 318.750,175.640 318.530,175.285 318.262 C 174.930 317.993,174.468 317.334,174.258 316.797 C 174.049 316.260,173.867 316.089,173.853 316.417 M107.911 340.820 C 107.915 341.680,107.995 341.985,108.089 341.499 C 108.182 341.013,108.179 340.310,108.081 339.937 C 107.983 339.563,107.907 339.961,107.911 340.820 " stroke="none" fill="#69dce7" fill-rule="evenodd"></path></g></svg>